<?xml version="1.0" encoding="utf-8"?>
<!-- Generator: Adobe Illustrator 25.2.0, SVG Export Plug-In . SVG Version: 6.00 Build 0)  -->
<svg version="1.1" id="图层_1" xmlns="http://www.w3.org/2000/svg" xmlns:xlink="http://www.w3.org/1999/xlink" x="0px" y="0px"
	 viewBox="0 0 700 453" style="enable-background:new 0 0 700 453;" xml:space="preserve">
<style type="text/css">
	.st0{fill:#D3E2F9;}
	.st1{fill:#2263D6;}
	.st2{fill:url(#SVGID_1_);}
	.st3{fill:#FFFFFF;}
	.st4{fill:#DAEBFF;}
	.st5{fill:#00B77B;}
	.st6{fill:#0ACE68;}
	.st7{fill:#00D967;}
	.st8{fill:none;stroke:#FFFFFF;stroke-width:0.3823;stroke-linecap:round;stroke-linejoin:round;stroke-miterlimit:10;}
	.st9{fill:#D1E3FF;}
	.st10{fill:#E3EEFF;}
	.st11{fill:#F5FCFF;}
	.st12{fill:#E2EEFF;}
	.st13{fill:#80C3FF;}
	.st14{fill:#006DFE;}
	.st15{fill:#2636B2;}
	.st16{fill:#EBF5FF;}
	.st17{fill:#7BBDFF;}
	.st18{fill:#054AA9;}
	.st19{fill:none;stroke:#DE4D30;stroke-width:0.3823;stroke-linecap:round;stroke-linejoin:round;stroke-miterlimit:10;}
	.st20{fill:#FFAB00;}
	.st21{fill:#EA756C;}
	.st22{fill:#0E2354;}
	.st23{clip-path:url(#SVGID_5_);fill:#07183A;}
	.st24{fill:#062F51;}
	.st25{fill:#153077;}
	.st26{fill:#06437F;}
	.st27{fill:#FFACA6;}
	.st28{clip-path:url(#SVGID_9_);fill:#FE8E00;}
	.st29{clip-path:url(#SVGID_13_);fill:#EA756C;}
	.st30{fill:#1E2889;}
	.st31{clip-path:url(#SVGID_17_);fill:#EA756C;}
	.st32{clip-path:url(#SVGID_19_);fill:#0041F9;}
	.st33{clip-path:url(#SVGID_21_);fill:#0054FC;}
	.st34{clip-path:url(#SVGID_23_);fill:#202D70;}
	.st35{clip-path:url(#SVGID_25_);fill:#202D70;}
	.st36{clip-path:url(#SVGID_27_);fill:#EA756C;}
	.st37{fill:#88C9FF;}
	.st38{fill:url(#SVGID_28_);}
</style>
<g>
	<ellipse class="st0" cx="391.4" cy="415.5" rx="45.4" ry="16.1"/>
	<ellipse class="st0" cx="145.9" cy="395.7" rx="89.2" ry="9.8"/>
	<rect x="44.6" y="369.9" class="st0" width="623.1" height="3.9"/>
	<g>
		<g>
			<path class="st1" d="M531.2,66.5c0-10-8.1-18.1-18.1-18.1h-316c-10,0-18.1,8.1-18.1,18.1V76h352.2L531.2,66.5L531.2,66.5z"/>
			
				<linearGradient id="SVGID_1_" gradientUnits="userSpaceOnUse" x1="179" y1="286.35" x2="531.2" y2="286.35" gradientTransform="matrix(1 0 0 -1 0 482)">
				<stop  offset="0" style="stop-color:#B0D8FF"/>
				<stop  offset="1.537955e-02" style="stop-color:#B3D9FF"/>
				<stop  offset="0.145" style="stop-color:#C4E1FF"/>
				<stop  offset="0.3014" style="stop-color:#D1E7FF"/>
				<stop  offset="0.5117" style="stop-color:#D8EAFF"/>
				<stop  offset="1" style="stop-color:#DAEBFF"/>
			</linearGradient>
			<path class="st2" d="M179,76.1v221c0,10,8.1,18.1,18.1,18.1h316c10,0,18.1-8.1,18.1-18.1v-221H179z"/>
		</g>
		<g>
			<rect x="204.6" y="216.6" class="st3" width="16.6" height="62.4"/>
			<rect x="233.8" y="224.7" class="st3" width="16.6" height="54.3"/>
			<rect x="263" y="240.9" class="st3" width="16.6" height="38.1"/>
			<rect x="292.1" y="228.7" class="st3" width="16.6" height="50.2"/>
			<rect x="321.3" y="240.9" class="st3" width="16.6" height="38.1"/>
			<rect x="350.5" y="228.7" class="st3" width="16.6" height="50.2"/>
			<rect x="198.6" y="284.2" class="st3" width="175" height="2.4"/>
		</g>
		<g>
			<path class="st3" d="M515.3,172.5H336.8c-0.9,0-1.6-0.7-1.6-1.6V96.5c0-0.9,0.7-1.6,1.6-1.6h178.5c0.9,0,1.6,0.7,1.6,1.6v74.4
				C516.9,171.8,516.2,172.5,515.3,172.5z"/>
			<path class="st4" d="M512.1,136.5V166c0,1.3-1.1,2.4-2.4,2.4h-168c-1.3,0-2.4-1.1-2.4-2.4v-64.8c15.5,0,23.2,5.8,27.8,13.4
				c0.3,0.5,0.6,1,0.8,1.5c7.7,14.5,5.4,34.4,22.2,34.4c0.6,0,1.2-0.1,1.8-0.2c0.4-0.1,0.7-0.2,1-0.3c11.3-4.8,9.6-38.6,29.7-38.4
				c4.3,0.1,7.5,1.7,10.1,4.3c0.2,0.3,0.5,0.5,0.7,0.8c9,10.6,9.2,34.2,23,38.5c5,1.5,9.4-0.5,13.8-4c0.3-0.2,0.6-0.4,0.8-0.7
				c9.2-7.6,18.4-20.7,32.6-17.5c0.4,0.1,0.8,0.2,1.2,0.3C507.2,133.9,509.5,134.9,512.1,136.5z"/>
			<path class="st5" d="M512.1,130.5c-3,0-5.3,1.1-7.2,2.7c-3.4,3-5.3,8.2-7.1,13.3c-2.7,7.6-5.5,15.4-13.6,15.4
				c-0.4,0-0.9,0-1.4-0.1c-5.3-0.5-9.2-4.8-12.6-10.7c-2.1-3.7-4.1-7.9-6.1-12.3c-5.6-12.3-11.5-25.1-22.2-25.4c-0.1,0-0.2,0-0.4,0
				c-3.2,0-5.9,1.2-8.1,3.3c-4.5,4.1-7.4,11.6-10.3,18.9c-4.2,10.8-8.5,22-18.2,22.2c-7,0.1-10.2-2.5-13-7.5
				c-1.1-1.9-2.2-4.3-3.4-6.9c-2.2-4.8-5-10.8-9.5-17.8c-3.1-4.7-6.9-7.6-11.1-9.4c-11.2-4.9-24.5-1.3-28.6,0V115
				c4.4-1.4,16.8-4.6,27.8-0.4c4.8,1.8,9.3,5,12.8,10.4c4.6,7,7.4,13.1,9.6,17.9c1.2,2.7,2.3,5.1,3.4,7c2.7,4.6,5.6,6.9,12,6.8
				c9-0.2,13-10.6,17.3-21.5c2.9-7.4,5.8-15,10.5-19.3c2.5-2.3,5.5-3.6,9.2-3.5c11.4,0.3,17.4,13.4,23.1,26c2,4.3,3.9,8.5,6,12.1
				c3.3,5.7,7,9.9,11.9,10.4c8.4,0.8,11-6.7,13.9-14.7c1.8-5,3.6-10,6.8-13.2c2.1-2.1,4.8-3.4,8.4-3.4L512.1,130.5z"/>
		</g>
		<g>
			<path class="st3" d="M306,104.4H199.5c-2.3,0-4.2-1.9-4.2-4.2l0,0c0-2.3,1.9-4.2,4.2-4.2H306c2.3,0,4.2,1.9,4.2,4.2l0,0
				C310.3,102.5,308.4,104.4,306,104.4z"/>
			<path class="st3" d="M306,122.7H199.5c-2.3,0-4.2-1.9-4.2-4.2l0,0c0-2.3,1.9-4.2,4.2-4.2H306c2.3,0,4.2,1.9,4.2,4.2l0,0
				C310.3,120.8,308.4,122.7,306,122.7z"/>
			<path class="st3" d="M308.3,141h-111c-1.1,0-2-0.9-2-2v-4.5c0-1.1,0.9-2,2-2h111c1.1,0,2,0.9,2,2v4.5
				C310.3,140.1,309.4,141,308.3,141z"/>
			<path class="st3" d="M308.3,159.3h-111c-1.1,0-2-0.9-2-2v-4.5c0-1.1,0.9-2,2-2h111c1.1,0,2,0.9,2,2v4.5
				C310.3,158.4,309.4,159.3,308.3,159.3z"/>
			<path class="st3" d="M308.3,177.6h-111c-1.1,0-2-0.9-2-2v-4.5c0-1.1,0.9-2,2-2h111c1.1,0,2,0.9,2,2v4.5
				C310.3,176.8,309.4,177.6,308.3,177.6z"/>
		</g>
		<g>
			<g>
				<path class="st6" d="M490.5,240.6c-4.3-19.1-21.4-33.4-41.9-33.4v42.9L490.5,240.6z"/>
				<path class="st3" d="M448.7,250.1v-42.9c-23.7,0-42.9,19.2-42.9,42.9c0,23.7,19.2,42.9,42.9,42.9c23.7,0,42.9-19.2,42.9-42.9
					c0-3.3-0.4-6.4-1.1-9.5L448.7,250.1z"/>
			</g>
			<circle class="st4" cx="448.7" cy="250.8" r="32.8"/>
		</g>
		<g>
			
				<ellipse transform="matrix(0.2298 -0.9732 0.9732 0.2298 292.9054 494.6833)" class="st3" cx="459" cy="62.3" rx="4.7" ry="4.7"/>
			<circle class="st3" cx="481.6" cy="62.2" r="4.7"/>
			
				<ellipse transform="matrix(0.2298 -0.9732 0.9732 0.2298 327.6502 538.5389)" class="st3" cx="504.1" cy="62.3" rx="4.7" ry="4.7"/>
		</g>
	</g>
	<g>
		<path class="st5" d="M99.4,373c0,0-7.4,14.8-20.7,20.3c-13.2,5.5-31.8-1.4-42.2-9.6C26.1,375.5,16,363.9,15,355.2
			s16.4-5.2,16.4-5.2s-7.7-10.5-10.9-18.1s0.6-15.4,11.1-10.7c10.5,4.7,10.5,4.7,10.5,4.7s-8.1-16.4-7.9-26.6
			c0.1-10.2,6.2-25.6,17.5-14.7s12.5,33.5,12.5,33.5s2.5-9.7,6.1-16.8c3.6-7.1,11.1-6.2,14.5,3.7c3.4,9.9,4.8,24,4.8,24
			s3.3-10.9,8.7-9.2s8.5,14.5,7.6,27C105.1,359.5,99.4,373,99.4,373z"/>
		<g>
			<path class="st7" d="M97,346.5c0,0-0.4-53.9-41.7-73.1c0,0-18.9,45.3,9.8,84.1S88,387.3,88,387.3L97,346.5z"/>
			<line class="st8" x1="65.5" y1="298.6" x2="89" y2="378.7"/>
		</g>
	</g>
	<g>
		<rect x="547.2" y="75.4" class="st9" width="134.4" height="171.8"/>
		<rect x="550.1" y="75.4" class="st10" width="137.6" height="171.8"/>
		<rect x="547.2" y="247.2" class="st9" width="134.4" height="12.2"/>
		<rect x="560.4" y="247.2" class="st10" width="137.6" height="12.2"/>
		<rect x="558.8" y="84.7" class="st11" width="120.4" height="153.4"/>
		<polygon class="st3" points="573.5,238 624,84.6 647.9,84.6 597.4,238 		"/>
		<path class="st12" d="M562.7,186c-0.3,0-0.6-0.3-0.6-0.7V90.6c0-0.4,0.3-0.7,0.6-0.7s0.6,0.3,0.6,0.7v94.7
			C563.3,185.7,563.1,186,562.7,186z"/>
		<polygon class="st3" points="602.5,238 653,84.6 662.3,84.6 611.8,238 		"/>
		<rect x="678" y="84.6" class="st9" width="1.1" height="153.4"/>
		<polygon class="st9" points="689.8,96.4 555.4,96.4 554.6,88.2 689,88.2 		"/>
		<polygon class="st9" points="689.8,102.4 555.4,102.4 554.6,94.2 689,94.2 		"/>
		<polygon class="st9" points="689.8,109.7 555.4,109.7 554.6,101.4 689,101.4 		"/>
		<polygon class="st9" points="689.8,117.7 555.4,117.7 554.6,109.5 689,109.5 		"/>
		<polygon class="st9" points="689.8,127.3 555.4,127.3 554.6,119.1 689,119.1 		"/>
		<polygon class="st9" points="689.8,138.1 555.4,138.1 554.6,129.9 689,129.9 		"/>
	</g>
	<g>
		<path class="st13" d="M234.2,283.9H75c-0.5,0-0.9-0.4-0.9-0.9v-28c0-0.5,0.4-0.9,0.9-0.9h159.2c0.5,0,0.9,0.4,0.9,0.9v28
			C235.1,283.5,234.7,283.9,234.2,283.9z"/>
		<ellipse class="st3" cx="90.2" cy="269" rx="3.4" ry="4"/>
		<ellipse class="st3" cx="104.5" cy="269" rx="3.4" ry="4"/>
		<ellipse class="st14" cx="118.8" cy="269" rx="3.4" ry="4"/>
		<path class="st4" d="M197,276.6h-3.6c-0.1,0-0.2-0.1-0.2-0.2v-14.9c0-0.1,0.1-0.2,0.2-0.2h3.6c0.1,0,0.2,0.1,0.2,0.2v14.9
			C197.2,276.6,197.1,276.6,197,276.6z"/>
		<path class="st4" d="M203.5,276.6h-3.6c-0.1,0-0.2-0.1-0.2-0.2v-14.9c0-0.1,0.1-0.2,0.2-0.2h3.6c0.1,0,0.2,0.1,0.2,0.2v14.9
			C203.7,276.6,203.6,276.6,203.5,276.6z"/>
		<path class="st4" d="M210,276.6h-3.6c-0.1,0-0.2-0.1-0.2-0.2v-14.9c0-0.1,0.1-0.2,0.2-0.2h3.6c0.1,0,0.2,0.1,0.2,0.2v14.9
			C210.1,276.6,210.1,276.6,210,276.6z"/>
		<path class="st4" d="M216.5,276.6h-3.6c-0.1,0-0.2-0.1-0.2-0.2v-14.9c0-0.1,0.1-0.2,0.2-0.2h3.6c0.1,0,0.2,0.1,0.2,0.2v14.9
			C216.6,276.6,216.5,276.6,216.5,276.6z"/>
		<rect x="80.4" y="283.9" class="st15" width="148.1" height="5.4"/>
		<path class="st13" d="M234.2,319.2H75c-0.5,0-0.9-0.4-0.9-0.9v-28c0-0.5,0.4-0.9,0.9-0.9h159.2c0.5,0,0.9,0.4,0.9,0.9v28
			C235.1,318.7,234.7,319.2,234.2,319.2z"/>
		<ellipse class="st3" cx="90.2" cy="304.2" rx="3.4" ry="4"/>
		<ellipse class="st14" cx="104.5" cy="304.2" rx="3.4" ry="4"/>
		<ellipse class="st14" cx="118.8" cy="304.2" rx="3.4" ry="4"/>
		<path class="st4" d="M197.1,311.8h-3.6c-0.1,0-0.2-0.1-0.2-0.2v-14.9c0-0.1,0.1-0.2,0.2-0.2h3.6c0.1,0,0.2,0.1,0.2,0.2v14.9
			C197.3,311.7,197.2,311.8,197.1,311.8z"/>
		<path class="st4" d="M203.6,311.8H200c-0.1,0-0.2-0.1-0.2-0.2v-14.9c0-0.1,0.1-0.2,0.2-0.2h3.6c0.1,0,0.2,0.1,0.2,0.2v14.9
			C203.8,311.7,203.7,311.8,203.6,311.8z"/>
		<path class="st4" d="M210.1,311.8h-3.6c-0.1,0-0.2-0.1-0.2-0.2v-14.9c0-0.1,0.1-0.2,0.2-0.2h3.6c0.1,0,0.2,0.1,0.2,0.2v14.9
			C210.2,311.7,210.2,311.8,210.1,311.8z"/>
		<path class="st4" d="M216.5,311.9h-3.6c-0.1,0-0.2-0.1-0.2-0.2v-14.9c0-0.1,0.1-0.2,0.2-0.2h3.6c0.1,0,0.2,0.1,0.2,0.2v14.9
			C216.6,311.8,216.5,311.9,216.5,311.9z"/>
		<rect x="80.4" y="319.2" class="st15" width="148.1" height="5.4"/>
		<path class="st13" d="M234.2,354.4H75c-0.5,0-0.9-0.4-0.9-0.9v-28c0-0.5,0.4-0.9,0.9-0.9h159.2c0.5,0,0.9,0.4,0.9,0.9v28
			C235.1,354,234.7,354.4,234.2,354.4z"/>
		<ellipse class="st3" cx="90.2" cy="339.5" rx="3.4" ry="4"/>
		<ellipse class="st3" cx="104.5" cy="339.5" rx="3.4" ry="4"/>
		<ellipse class="st14" cx="118.8" cy="339.5" rx="3.4" ry="4"/>
		<path class="st4" d="M197.1,347.1h-3.6c-0.1,0-0.2-0.1-0.2-0.2V332c0-0.1,0.1-0.2,0.2-0.2h3.6c0.1,0,0.2,0.1,0.2,0.2v14.9
			C197.3,347,197.2,347.1,197.1,347.1z"/>
		<path class="st4" d="M203.6,347.1H200c-0.1,0-0.2-0.1-0.2-0.2V332c0-0.1,0.1-0.2,0.2-0.2h3.6c0.1,0,0.2,0.1,0.2,0.2v14.9
			C203.8,347,203.7,347.1,203.6,347.1z"/>
		<path class="st4" d="M210.1,347.1h-3.6c-0.1,0-0.2-0.1-0.2-0.2V332c0-0.1,0.1-0.2,0.2-0.2h3.6c0.1,0,0.2,0.1,0.2,0.2v14.9
			C210.2,347,210.2,347.1,210.1,347.1z"/>
		<path class="st4" d="M216.6,347.1H213c-0.1,0-0.2-0.1-0.2-0.2V332c0-0.1,0.1-0.2,0.2-0.2h3.6c0.1,0,0.2,0.1,0.2,0.2v14.9
			C216.7,347,216.6,347.1,216.6,347.1z"/>
		<rect x="80.4" y="354.4" class="st15" width="148.1" height="5.4"/>
		<path class="st13" d="M234.2,389.7H75c-0.5,0-0.9-0.4-0.9-0.9v-28c0-0.5,0.4-0.9,0.9-0.9h159.2c0.5,0,0.9,0.4,0.9,0.9v28
			C235.1,389.3,234.7,389.7,234.2,389.7z"/>
		<ellipse class="st3" cx="90.2" cy="374.8" rx="3.4" ry="4"/>
		<ellipse class="st3" cx="104.5" cy="374.8" rx="3.4" ry="4"/>
		<ellipse class="st14" cx="118.8" cy="374.8" rx="3.4" ry="4"/>
		<path class="st4" d="M197.1,382.3h-3.6c-0.1,0-0.2-0.1-0.2-0.2v-14.9c0-0.1,0.1-0.2,0.2-0.2h3.6c0.1,0,0.2,0.1,0.2,0.2v14.9
			C197.3,382.3,197.2,382.3,197.1,382.3z"/>
		<path class="st4" d="M203.6,382.3H200c-0.1,0-0.2-0.1-0.2-0.2v-14.9c0-0.1,0.1-0.2,0.2-0.2h3.6c0.1,0,0.2,0.1,0.2,0.2v14.9
			C203.8,382.3,203.7,382.3,203.6,382.3z"/>
		<path class="st4" d="M210.1,382.3h-3.6c-0.1,0-0.2-0.1-0.2-0.2v-14.9c0-0.1,0.1-0.2,0.2-0.2h3.6c0.1,0,0.2,0.1,0.2,0.2v14.9
			C210.2,382.3,210.2,382.3,210.1,382.3z"/>
		<path class="st4" d="M216.6,382.3H213c-0.1,0-0.2-0.1-0.2-0.2v-14.9c0-0.1,0.1-0.2,0.2-0.2h3.6c0.1,0,0.2,0.1,0.2,0.2v14.9
			C216.7,382.3,216.6,382.3,216.6,382.3z"/>
		<rect x="80.4" y="389.7" class="st15" width="148.1" height="5.4"/>
	</g>
	<rect x="597.1" y="296.8" class="st4" width="41.5" height="18.4"/>
	<rect x="613.9" y="315.2" class="st16" width="41.5" height="18.4"/>
	<g>
		<circle class="st17" cx="93.6" cy="110.4" r="51"/>
		<circle class="st4" cx="93.6" cy="110.4" r="46.8"/>
		<path class="st18" d="M93.6,111.8c-0.4,0-0.7-0.1-1-0.4L67.2,88.3c-0.6-0.5-0.6-1.5-0.1-2.1s1.5-0.6,2.1-0.1l24.4,22.2l18.8-16.4
			c0.6-0.5,1.5-0.5,2.1,0.1c0.5,0.6,0.5,1.5-0.1,2.1l-19.8,17.3C94.3,111.7,94,111.8,93.6,111.8z"/>
		<rect x="92" y="146.1" class="st18" width="3.1" height="8"/>
		<rect x="92" y="66.5" class="st18" width="3.1" height="8"/>
		<rect x="49.8" y="108.8" class="st18" width="8" height="3.1"/>
		<rect x="129.4" y="108.8" class="st18" width="8" height="3.1"/>
		<line class="st19" x1="93.6" y1="111.3" x2="106" y2="148.5"/>
		<circle class="st17" cx="93.6" cy="110.4" r="5.4"/>
		<ellipse class="st20" cx="93.7" cy="110.4" rx="3.2" ry="3.2"/>
	</g>
	<g>
		<path class="st21" d="M126.3,211.6L126.3,211.6c-3.1-1-4.9-4.4-3.8-7.5l12.5-38.5c1-3.1,4.4-4.9,7.5-3.8l0,0
			c3.1,1,4.9,4.4,3.8,7.5l-12.5,38.5C132.9,210.9,129.5,212.6,126.3,211.6z"/>
		<path class="st21" d="M125.5,200.6c0,0-32.3,8.9-35,8c-2.7-1-11.4-3.7-16.5,1.4s-3.6,8.5,4.3,6.7s7.7,1,13.3-2.1
			c0,0,20.3,1.4,38.2-3L125.5,200.6z"/>
		<path class="st21" d="M134,141.3l6.6,2.1c0,0-0.2,1.9,0.4,4.3c-1.7,0.5-4.3,2-6.1,6.3c-0.4-1.9-1.4-4.6-3.6-6.9L134,141.3z"/>
		<g>
			<g>
				<path id="SVGID_2_" class="st22" d="M119.6,124.9c0,0-11.1-1.7-11.9-13.9c0,0,5.2,1.5,10.9,0.6c5.7-0.9,22-12.6,32.1,6.6
					c10.1,19.2-11.9,27.8-11.9,27.8l-6.4-4.5L119.6,124.9z"/>
			</g>
			<g>
				<defs>
					<path id="SVGID_3_" d="M119.6,124.9c0,0-11.1-1.7-11.9-13.9c0,0,5.2,1.5,10.9,0.6c5.7-0.9,22-12.6,32.1,6.6
						c10.1,19.2-11.9,27.8-11.9,27.8l-6.4-4.5L119.6,124.9z"/>
				</defs>
				<clipPath id="SVGID_5_">
					<use xlink:href="#SVGID_3_"  style="overflow:visible;"/>
				</clipPath>
				<path class="st23" d="M116.1,124.9c0,0-2.4-6.2,4.5-5.7s11.6,6.4,13.9,10.8s9.1,11.3,14.8,9.7l-5.8,7l-17.7,0.9l-7.7-16.6
					L116.1,124.9z"/>
			</g>
		</g>
		<g>
			<g>
				<path class="st24" d="M74.3,223.5l-3.3-0.8c0,0-2,4.5-1.7,11.8s4,13.2,4,13.2s4.6-6,4.7-10C78.2,233.8,74.3,223.5,74.3,223.5z"
					/>
				<path class="st21" d="M26.2,274.9c1.6-0.9,3-2.5,4.7-4.1c9.3-8.8,20.8-39.3,26.4-43.2c5.6-3.9,17.2-3.1,17.2-3.1l4.8,10
					c0,0-12.4,11.5-22.2,24c-10.2,13.1-21.2,24.2-21.2,24.2C33.4,282.4,28.8,281.4,26.2,274.9z"/>
				<path class="st25" d="M3.1,278.2c1.6-3.3,4.3-3.5,8.4-2.8c3.3,0.6,8.5,2.8,14.7-0.5c2.5,6.4,7.2,7.4,9.7,7.7l0,0L29.5,294
					c-1.1,2.3-4,3.5-6.3,2.2C18.1,293.4,11.3,290,7,288C0.7,285.1,1.5,281.5,3.1,278.2z"/>
			</g>
			<path class="st26" d="M125.4,227.1l-6.6-5.3l-47.6,1c0,0,8.8,5.9,2.3,25.1c0,0,17.5,5,30.1,5.5s37.6-0.6,42.7-7.9L125.4,227.1z"
				/>
		</g>
		<g>
			<g>
				<path class="st25" d="M82,226.6l-1.7-0.6c0,0-2.3,3.6-2.2,9.8c0,6.2,1.6,13.1,4.5,15.2l6.2-10.9l-3.4-11L82,226.6z"/>
				<path class="st27" d="M43.6,292.4c0.1-0.1,0.3-0.2,0.4-0.2c4.9-3.1,8.7-37.1,10.7-47.1s8.4-15.2,16.6-16.4
					c8.2-1.2,15.7-0.9,15.7-0.9v22.3c0,0-15.5-3.1-16,0.8c-1.4,9.3-17.6,45.8-17.6,45.8l-0.5,1.5C50.4,297.9,46.7,296.7,43.6,292.4z
					"/>
				<path class="st25" d="M20.2,299.4c2-5.2,5.2-5.5,9.8-4.5c4.5,1,8.8,0.3,13.5-2.6c3.1,4.3,6.8,5.5,9.4,5.7l-4,13
					c-0.6,1.9-2.7,2.9-4.6,2.2c-3.9-1.5-10.1-3.8-13.3-4.3C26.2,308.1,18.1,304.7,20.2,299.4z"/>
			</g>
			<path class="st18" d="M126.5,230.4l-6.6-5.3l-39.6,1c0,0,8.8,5.9,2.3,25.1c0,0,17.8,3.7,30.3,4.2s29.3,0.7,34.4-6.6L126.5,230.4z
				"/>
		</g>
		<g>
			<g>
				<path id="SVGID_4_" class="st20" d="M143,154.4l1.1-1.1c0,0,4.4-1.2,8.7,7.1c4.3,8.3,13.9,32.7,8.9,55.7s-14.3,32.6-14.3,32.6
					s-28.6,0-28.6-27c0,0,15.5-5.9,14.3-25.9c-1.2-19.9-2.6-21.2,2.2-39.4L143,154.4z"/>
			</g>
			<g>
				<defs>
					<path id="SVGID_7_" d="M143,154.4l1.1-1.1c0,0,4.4-1.2,8.7,7.1c4.3,8.3,13.9,32.7,8.9,55.7s-14.3,32.6-14.3,32.6
						s-28.6,0-28.6-27c0,0,15.5-5.9,14.3-25.9c-1.2-19.9-2.6-21.2,2.2-39.4L143,154.4z"/>
				</defs>
				<clipPath id="SVGID_9_">
					<use xlink:href="#SVGID_7_"  style="overflow:visible;"/>
				</clipPath>
				<path class="st28" d="M125.6,188.6l10-1.4l12.3-16.5c0,0,5.4,28-3.9,46.9c-9.3,18.9-25.3,21-25.3,21l-4.9-22.4L125.6,188.6z"/>
			</g>
		</g>
		<path class="st27" d="M127.7,214.6L127.7,214.6c-3.1-1-4.9-4.4-3.8-7.5l12.5-38.5c1-3.1,4.4-4.9,7.5-3.8l0,0
			c3.1,1,4.9,4.4,3.8,7.5l-12.5,38.5C134.2,213.9,130.9,215.6,127.7,214.6z"/>
		<path class="st27" d="M128.4,203.2c0,0-32.3,8.9-35,8c-2.7-1-11.4-3.7-16.5,1.4s-3.6,8.5,4.3,6.7c8-1.8,7.7,1,13.3-2.1
			c0,0,18.8,1.8,36.7-2.6L128.4,203.2z"/>
		<path class="st22" d="M71.5,225.4h44c0.4,0,0.7-0.3,0.7-0.7v-3.5c0-0.4-0.3-0.7-0.7-0.7h-44c-0.4,0-0.7,0.3-0.7,0.7v3.5
			C70.8,225.1,71.1,225.4,71.5,225.4z"/>
		<path class="st22" d="M71.4,219.5L52.6,181c-0.3-0.6-1.1-0.9-1.7-0.6l-0.5,0.3c-0.6,0.3-0.9,1.1-0.6,1.7l18.8,38.4
			c0.3,0.6,1.1,0.9,1.7,0.6l0.5-0.3C71.5,220.9,71.7,220.1,71.4,219.5z"/>
		<g>
			<g>
				<g>
					<path class="st27" d="M141,147.7c0.4,1.8,1.3,3.8,3,5.6c0,0,0.4,3.4-3.2,4.2c-3.6,0.8-5.5-1.1-5.5-1.1s0-1-0.3-2.4
						C136.7,149.7,139.3,148.2,141,147.7z"/>
				</g>
			</g>
		</g>
		<g>
			<g>
				<path id="SVGID_6_" class="st27" d="M118.4,124.1c0,0-2.7,29.6,6.2,29.3c8.9-0.4,10.2-10.2,10.2-10.2s3.2-0.9,2.5-5.4
					s-3.8-3-4.2-2.4C133.2,135.4,127.3,121.1,118.4,124.1z"/>
			</g>
			<g>
				<defs>
					<path id="SVGID_11_" d="M118.4,124.1c0,0-2.7,29.6,6.2,29.3c8.9-0.4,10.2-10.2,10.2-10.2s3.2-0.9,2.5-5.4s-3.8-3-4.2-2.4
						C133.2,135.4,127.3,121.1,118.4,124.1z"/>
				</defs>
				<clipPath id="SVGID_13_">
					<use xlink:href="#SVGID_11_"  style="overflow:visible;"/>
				</clipPath>
				<path class="st29" d="M137.1,143.1c0,0,0.8-4.2-2.8-3.8c-3.7,0.4-4-3.5-6.9-7.1c-2.9-3.5-5.1-7.2-9.8-5.3l-0.1-4.4l11,0.9
					l9.6,11.3l0.1,6.9L137.1,143.1z"/>
			</g>
		</g>
	</g>
	<g>
		<g>
			<path class="st30" d="M374.5,409.2c0,0-1.5,3.9-3.6,5.9c-12-4.9-22.9-12.6-27-15.7c0.2-0.9,0.7-1.9,1.4-3c1.2-2,4.7-8,7.1-12.1
				c1,2,3.6,5.4,10.4,7.4c-2.2,5.1,4.8,10.3,8.7,12.8C375.4,407.1,374.5,409.2,374.5,409.2z"/>
			<path class="st21" d="M365.9,385.8c0,0-0.2,0.3-2.9,5.5c-0.1,0.1-0.1,0.3-0.2,0.4c-6.8-2-9.4-5.4-10.4-7.4
				c1.4-2.4,2.4-4.1,2.4-4.1L365.9,385.8z"/>
			<path class="st22" d="M370.9,415c-0.5,0.5-1.1,0.9-1.7,1c-3,0.9-20.9-10.2-23.5-12.1c-1.8-1.3-2.2-2.8-1.8-4.6
				C348,402.4,358.9,410.1,370.9,415z"/>
		</g>
		<g>
			<path class="st30" d="M430.4,408.3c0,0,0.4,4.1-0.6,6.9c-12.9,0.9-26.1-1.2-31.1-2.1c-0.2-0.9-0.2-2-0.1-3.3
				c0.2-2.4,0.7-9.3,1-14c1.8,1.4,5.6,3.2,12.6,2.1c0.3,5.6,8.8,7.1,13.4,7.7C430.3,406,430.4,408.3,430.4,408.3z"/>
			<path class="st27" d="M412.4,391.1c0,0-0.1,0.3-0.2,6.3c0,0.1,0,0.3,0,0.4c-7,1.2-10.8-0.7-12.6-2.1c0.2-2.7,0.3-4.7,0.3-4.7
				L412.4,391.1z"/>
			<path class="st22" d="M429.8,415.1c-0.3,0.7-0.6,1.2-1.1,1.7c-2.3,2.1-23.2,0.1-26.5-0.5c-2.1-0.4-3.2-1.5-3.6-3.3
				C403.7,413.9,416.9,416,429.8,415.1z"/>
		</g>
		<polygon class="st20" points="450.9,173.7 423.7,163.3 410.1,213.1 434.9,224.5 		"/>
		<g>
			<g>
				<path id="SVGID_8_" class="st27" d="M402.1,134.1c0,0,0.5,16.5-2.1,21s-6.5,3-8.1-2v-16.2L402.1,134.1z"/>
			</g>
			<g>
				<defs>
					<path id="SVGID_15_" d="M402.1,134.1c0,0,0.5,16.5-2.1,21s-6.5,3-8.1-2v-16.2L402.1,134.1z"/>
				</defs>
				<clipPath id="SVGID_17_">
					<use xlink:href="#SVGID_15_"  style="overflow:visible;"/>
				</clipPath>
				<path class="st31" d="M402.8,135.7c0,0-6,4.3-8.1,7.8c-1.6,2.6-0.9,13.3-0.9,13.3l-4-1.9c0,0-0.1-7.4,0-11.2s2.8-9.1,2.8-9.1
					s3.6-4,5.5-4.6s3.3,0,3.3,0L402.8,135.7z"/>
			</g>
		</g>
		<path class="st21" d="M393.9,155c0,0-1.5,8,0.7,13.8c0,0-1.7,3.2-5.4,3.4s-5.5-2.7-5.5-2.7s1-3.8,0-9.9L393.9,155z"/>
		<path class="st21" d="M367.4,205.3c0,0-6.7,7.1-3.9,11.6c2.8,4.5,5.8,10.1,5.8,10.1l-0.6,12.4c0,0-15.3-16.5-16.3-22
			s2.5-12.4,5.9-17.5L367.4,205.3z"/>
		<g>
			<g>
				<path id="SVGID_10_" class="st14" d="M392.2,288.8v34.9c0,0-5.9,26-14.4,44.6s-10.1,20.1-10.1,20.1s-11.1,0.9-16.8-7.1
					c0,0,17.5-44.4,17.7-60.9s-3.8-42,0-55.2c0.4-2.4,1.7-4.6,1.7-4.6l17,1.7L392.2,288.8z"/>
			</g>
			<g>
				<defs>
					<path id="SVGID_18_" d="M392.2,288.8v34.9c0,0-5.9,26-14.4,44.6s-10.1,20.1-10.1,20.1s-11.1,0.9-16.8-7.1
						c0,0,17.5-44.4,17.7-60.9s-3.8-42,0-55.2c0.4-2.4,1.7-4.6,1.7-4.6l17,1.7L392.2,288.8z"/>
				</defs>
				<clipPath id="SVGID_19_">
					<use xlink:href="#SVGID_18_"  style="overflow:visible;"/>
				</clipPath>
				<path class="st32" d="M365.1,266.6c0,0,10.3,26.7,11.5,43.6s2.6,43.9-2.8,69.2l22.4-51.5v-44.5l-9-21l-19.6-3.7L365.1,266.6z"/>
			</g>
		</g>
		<g>
			<g>
				<path id="SVGID_12_" class="st14" d="M408.9,262.4l3.1,1.1c0,0,3.3,28.6,4.5,49.6s-1.7,77.3-1.7,77.3s-9.9,6.6-18.6,0
					c0,0,1.2-35.1-1.7-50.5c-2.8-15.4-19.7-69.7-18.9-76.5L408.9,262.4z"/>
			</g>
			<g>
				<defs>
					<path id="SVGID_20_" d="M408.9,262.4l3.1,1.1c0,0,3.3,28.6,4.5,49.6s-1.7,77.3-1.7,77.3s-9.9,6.6-18.6,0c0,0,1.2-35.1-1.7-50.5
						c-2.8-15.4-19.7-69.7-18.9-76.5L408.9,262.4z"/>
				</defs>
				<clipPath id="SVGID_21_">
					<use xlink:href="#SVGID_20_"  style="overflow:visible;"/>
				</clipPath>
				<path class="st33" d="M394.3,264.2c0,0-2.1,9.1,2.8,29.4c5,20.3,7.3,35.3,7.6,51.9c0.2,16.6-2.8,53.1-2.8,53.1l-7.6-1.2
					l-24.9-128.3l10.3-18.6L394.3,264.2z"/>
			</g>
		</g>
		<g>
			<g>
				<path id="SVGID_14_" class="st30" d="M394.6,168.8c0,0,14.1,5.4,15.6,12.7c1.4,7.3,1.9,82,1.9,82s-9.9,7.7-26,6
					c-16-1.7-17-7.7-17-7.7s-0.2-50.2,0.8-54.1c0,0-8.2,0-12.4-7.5c0,0,8.9-21.3,12.2-27.1c4.1-7.3,14.1-5.3,14.1-5.3
					S387.1,173.9,394.6,168.8z"/>
			</g>
			<g>
				<defs>
					<path id="SVGID_22_" d="M394.6,168.8c0,0,14.1,5.4,15.6,12.7c1.4,7.3,1.9,82,1.9,82s-9.9,7.7-26,6c-16-1.7-17-7.7-17-7.7
						s-0.2-50.2,0.8-54.1c0,0-8.2,0-12.4-7.5c0,0,8.9-21.3,12.2-27.1c4.1-7.3,14.1-5.3,14.1-5.3S387.1,173.9,394.6,168.8z"/>
				</defs>
				<clipPath id="SVGID_23_">
					<use xlink:href="#SVGID_22_"  style="overflow:visible;"/>
				</clipPath>
				<path class="st34" d="M402.2,181c0,0-4-2.3-4.9,1.6s-6.2,33,3.5,45.1c9.7,12,12.5,8.1,15,1.3C418.2,222.3,408.8,184.9,402.2,181
					z"/>
			</g>
			<g>
				<defs>
					<path id="SVGID_24_" d="M394.6,168.8c0,0,14.1,5.4,15.6,12.7c1.4,7.3,1.9,82,1.9,82s-9.9,7.7-26,6c-16-1.7-17-7.7-17-7.7
						s-0.2-50.2,0.8-54.1c0,0-8.2,0-12.4-7.5c0,0,8.9-21.3,12.2-27.1c4.1-7.3,14.1-5.3,14.1-5.3S387.1,173.9,394.6,168.8z"/>
				</defs>
				<clipPath id="SVGID_25_">
					<use xlink:href="#SVGID_24_"  style="overflow:visible;"/>
				</clipPath>
				<path class="st35" d="M385.9,167.4c0,0-4.6-0.9-5.2,12.4s0.8,93.1,2.2,95.2c1.4,2.1-17-7.8-17-7.8s-28.1-72.7-26.7-74.7
					s43.7-29.7,43.7-29.7L385.9,167.4z"/>
			</g>
		</g>
		<g>
			<g>
				<path id="SVGID_16_" class="st27" d="M415.6,206.7c0,0,1.3,10.5,3.6,13.6c2.3,3.1,21.3-11.7,21.3-11.7S440,196,448,190.9
					c7.9-5,2.1,14.8-1.1,20.1c0,0-12,16.7-23.5,21.6s-12.8-0.6-14.7-3.4c-1.9-2.9-5.1-19.7-5.1-19.7L415.6,206.7z"/>
			</g>
			<g>
				<defs>
					<path id="SVGID_26_" d="M415.6,206.7c0,0,1.3,10.5,3.6,13.6c2.3,3.1,21.3-11.7,21.3-11.7S440,196,448,190.9
						c7.9-5,2.1,14.8-1.1,20.1c0,0-12,16.7-23.5,21.6s-12.8-0.6-14.7-3.4c-1.9-2.9-5.1-19.7-5.1-19.7L415.6,206.7z"/>
				</defs>
				<clipPath id="SVGID_27_">
					<use xlink:href="#SVGID_26_"  style="overflow:visible;"/>
				</clipPath>
				<path class="st36" d="M416.8,211.3c0,0-8.6,0.7-7.5,6.1s0.5,13.1,9.2,13.1s14.8-4.6,14.8-4.6l-7.9,9.8h-11.9l-8-3.6
					c0,0-5.2-12.8-5.2-13.6s1.7-10.6,1.7-10.6l12.9-2.9l2,4.4L416.8,211.3z"/>
			</g>
		</g>
		<path class="st30" d="M416.2,206.1c0,0-2.4-19.9-5.4-26.1s-10.3-5.7-12.5,0s-1.9,30.7-1.9,30.7S408.5,216.7,416.2,206.1z"/>
		<path class="st22" d="M401.7,134.9c0,0,2.8-2.5,3.4-7.3s1.6-13.3-5.4-14.4c-7-1.1-7.5,2.2-10.6,2.6c-3.1,0.4-18.7-0.2-23.3,13.6
			c-3.2,9.6,3.8,19.1,9.4,24.8s6.1,5.9,6.1,5.9s4,1.3,9-0.6l2.7-4.1c0,0,0.9-1.2-0.1-4.2s-1.3-5.8,0.1-7.5c1.3-1.7,2.8-4.8,2.9-7.3
			C395.8,136.4,398.4,137.5,401.7,134.9z"/>
	</g>
	<g>
		<path class="st37" d="M644.4,245.1H473.1c-2.9,0-5.2-2.3-5.2-5.2V123.7c0-2.9,2.3-5.2,5.2-5.2h171.3c2.9,0,5.2,2.3,5.2,5.2v116.2
			C649.6,242.8,647.2,245.1,644.4,245.1z"/>
		<g>
			<path class="st1" d="M649.6,129.4c0-6-4.9-10.8-10.8-10.8H481.4c-6,0-10.8,4.9-10.8,10.8v6.5h179V129.4z"/>
			
				<linearGradient id="SVGID_28_" gradientUnits="userSpaceOnUse" x1="470.6" y1="292.75" x2="649.5" y2="292.75" gradientTransform="matrix(1 0 0 -1 0 482)">
				<stop  offset="0" style="stop-color:#B0D8FF"/>
				<stop  offset="1.537955e-02" style="stop-color:#B3D9FF"/>
				<stop  offset="0.145" style="stop-color:#C4E1FF"/>
				<stop  offset="0.3014" style="stop-color:#D1E7FF"/>
				<stop  offset="0.5117" style="stop-color:#D8EAFF"/>
				<stop  offset="1" style="stop-color:#DAEBFF"/>
			</linearGradient>
			<path class="st38" d="M470.6,135.9v95.9c0,6,4.9,10.8,10.8,10.8h157.3c6,0,10.8-4.9,10.8-10.8v-95.9H470.6z"/>
		</g>
		<g>
			<circle class="st3" cx="596.2" cy="127.2" r="3.6"/>
			
				<ellipse transform="matrix(0.2298 -0.9732 0.9732 0.2298 348.782 695.1271)" class="st3" cx="613.6" cy="127.2" rx="3.6" ry="3.6"/>
			<circle class="st3" cx="630.9" cy="127.2" r="3.6"/>
		</g>
		<g>
			<g>
				<path class="st14" d="M540.4,149.3h-34c-0.7,0-1.3-0.7-1.3-1.5l0,0c0-0.8,0.6-1.5,1.3-1.5h34c0.7,0,1.3,0.7,1.3,1.5l0,0
					C541.7,148.6,541.1,149.3,540.4,149.3z"/>
			</g>
			<g>
				<g>
					<path class="st7" d="M534.8,162.5h-34c-0.7,0-1.3-0.7-1.3-1.5l0,0c0-0.8,0.6-1.5,1.3-1.5h34c0.7,0,1.3,0.7,1.3,1.5l0,0
						C536.1,161.8,535.5,162.5,534.8,162.5z"/>
				</g>
			</g>
			<g>
				<path class="st14" d="M606.9,162.5h-58.4c-0.7,0-1.3-0.7-1.3-1.5l0,0c0-0.8,0.6-1.5,1.3-1.5h58.4c0.7,0,1.3,0.7,1.3,1.5l0,0
					C608.2,161.8,607.6,162.5,606.9,162.5z"/>
			</g>
			<g>
				<path class="st14" d="M569.8,149.3h-17.2c-0.7,0-1.3-0.7-1.3-1.5l0,0c0-0.8,0.6-1.5,1.3-1.5h17.2c0.7,0,1.3,0.7,1.3,1.5l0,0
					C571.1,148.6,570.5,149.3,569.8,149.3z"/>
			</g>
			<g>
				<path class="st14" d="M600,149.3h-17.2c-0.7,0-1.3-0.7-1.3-1.5l0,0c0-0.8,0.6-1.5,1.3-1.5H600c0.7,0,1.3,0.7,1.3,1.5l0,0
					C601.2,148.6,600.7,149.3,600,149.3z"/>
			</g>
			<g>
				<path class="st14" d="M523.6,175.7h-22.3c-0.7,0-1.3-0.7-1.3-1.5l0,0c0-0.8,0.6-1.5,1.3-1.5h22.3c0.7,0,1.3,0.7,1.3,1.5l0,0
					C524.8,175,524.3,175.7,523.6,175.7z"/>
			</g>
			<g>
				<g>
					<path class="st7" d="M569.9,175.7h-34c-0.7,0-1.3-0.7-1.3-1.5l0,0c0-0.8,0.6-1.5,1.3-1.5h34c0.7,0,1.3,0.7,1.3,1.5l0,0
						C571.1,175,570.6,175.7,569.9,175.7z"/>
				</g>
			</g>
			<g>
				<path class="st14" d="M594.7,175.7H582c-0.7,0-1.3-0.7-1.3-1.5l0,0c0-0.8,0.6-1.5,1.3-1.5h12.7c0.7,0,1.3,0.7,1.3,1.5l0,0
					C595.9,175,595.4,175.7,594.7,175.7z"/>
			</g>
			<g>
				<path class="st14" d="M544.6,188.8h-19.9c-0.7,0-1.3-0.7-1.3-1.5l0,0c0-0.8,0.6-1.5,1.3-1.5h19.9c0.7,0,1.3,0.7,1.3,1.5l0,0
					C545.8,188.2,545.3,188.8,544.6,188.8z"/>
			</g>
			<g>
				<path class="st14" d="M592.2,188.8h-34c-0.7,0-1.3-0.7-1.3-1.5l0,0c0-0.8,0.6-1.5,1.3-1.5h34c0.7,0,1.3,0.7,1.3,1.5l0,0
					C593.5,188.2,592.9,188.8,592.2,188.8z"/>
			</g>
			<g>
				<path class="st14" d="M581.3,202h-63.7c-0.7,0-1.3-0.7-1.3-1.5l0,0c0-0.8,0.6-1.5,1.3-1.5h63.7c0.7,0,1.3,0.7,1.3,1.5l0,0
					C582.6,201.4,582,202,581.3,202z"/>
			</g>
			<g>
				<path class="st14" d="M629,202h-38.5c-0.7,0-1.3-0.7-1.3-1.5l0,0c0-0.8,0.6-1.5,1.3-1.5H629c0.7,0,1.3,0.7,1.3,1.5l0,0
					C630.2,201.4,629.7,202,629,202z"/>
			</g>
			<g>
				<path class="st14" d="M534.8,215.2h-34c-0.7,0-1.3-0.7-1.3-1.5l0,0c0-0.8,0.6-1.5,1.3-1.5h34c0.7,0,1.3,0.7,1.3,1.5l0,0
					C536.1,214.6,535.5,215.2,534.8,215.2z"/>
			</g>
			<g>
				<g>
					<path class="st7" d="M576,215.2h-34c-0.7,0-1.3-0.7-1.3-1.5l0,0c0-0.8,0.6-1.5,1.3-1.5h34c0.7,0,1.3,0.7,1.3,1.5l0,0
						C577.2,214.6,576.7,215.2,576,215.2z"/>
				</g>
			</g>
			<g>
				<path class="st14" d="M579.2,228.4h-51.6c-0.7,0-1.3-0.7-1.3-1.5l0,0c0-0.8,0.6-1.5,1.3-1.5h51.6c0.7,0,1.3,0.7,1.3,1.5l0,0
					C580.5,227.8,579.9,228.4,579.2,228.4z"/>
			</g>
			<g>
				<g>
					<rect x="482.9" y="146.3" class="st14" width="2.5" height="2.9"/>
				</g>
				<g>
					<rect x="482.9" y="159.5" class="st14" width="2.5" height="2.9"/>
				</g>
				<g>
					<rect x="482.9" y="172.7" class="st14" width="2.5" height="2.9"/>
				</g>
				<g>
					<rect x="482.9" y="185.9" class="st14" width="2.5" height="2.9"/>
				</g>
				<g>
					<rect x="482.9" y="199.1" class="st14" width="2.5" height="2.9"/>
				</g>
				<g>
					<rect x="482.9" y="212.3" class="st14" width="2.5" height="2.9"/>
				</g>
				<g>
					<rect x="482.9" y="225.5" class="st14" width="2.5" height="2.9"/>
				</g>
			</g>
			<g>
				<g>
					<path class="st14" d="M615.9,234.4l-9.1-4.6c-0.3-0.1-0.5-0.5-0.5-0.8v-1c0-0.4,0.2-0.7,0.5-0.8l9.1-4.6
						c0.5-0.3,1.1,0.2,1.1,0.8v0.4c0,0.4-0.2,0.7-0.5,0.8l-6.3,3c-0.6,0.3-0.6,1.4,0,1.7l6.3,3c0.3,0.1,0.5,0.5,0.5,0.8v0.4
						C616.9,234.3,616.4,234.7,615.9,234.4z"/>
				</g>
				<g>
					<path class="st14" d="M624.1,220.1l-4.2,17.1c-0.1,0.4-0.4,0.6-0.7,0.6l0,0c-0.5,0-0.9-0.6-0.7-1.1l4.2-17.1
						c0.1-0.4,0.4-0.6,0.7-0.6l0,0C623.9,219,624.3,219.5,624.1,220.1z"/>
				</g>
				<g>
					<path class="st14" d="M635.8,229.9l-9.1,4.6c-0.5,0.3-1.1-0.2-1.1-0.8v-0.4c0-0.4,0.2-0.7,0.5-0.8l6.3-3c0.6-0.3,0.6-1.4,0-1.7
						l-6.3-3c-0.3-0.1-0.5-0.5-0.5-0.8v-0.4c0-0.6,0.6-1.1,1.1-0.8l9.1,4.6c0.3,0.1,0.5,0.5,0.5,0.8v1
						C636.3,229.4,636.1,229.7,635.8,229.9z"/>
				</g>
			</g>
		</g>
	</g>
</g>
</svg>
